# xmcd
#
# Track frame offsets: 
#        150
#        10580
#        22913
#        33390
#        42720
#        55465
#        65410
#        76838
#        86750
#        97988
#
# Disc length: 1437 seconds
#
# Revision: 0
# Processed by: cddbd v1.4PL0 Copyright (c) Steve Scherf et al.
# Submitted via: ExactAudioCopy v0.90b3
#
DISCID=73059b0a
DTITLE=Barbara Mandrell - Branson City Limits
DYEAR=1900
DGENRE=Country
TTITLE0=This Time I Almost Made It
TTITLE1=The Midnight Oil
TTITLE2=Treat Him Right
TTITLE3=Tonight My Baby's Coming Home
TTITLE4=A Very Special Love Song
TTITLE5=I've Been Loving You Too Long (To Stop Now)
TTITLE6=Playin' Around With Love
TTITLE7=Do Right Woman-Do Right Man
TTITLE8=Something
TTITLE9=How Can It Be Wrong (When It Feels So Right)
EXTD=
EXTT0=
EXTT1=
EXTT2=
EXTT3=
EXTT4=
EXTT5=
EXTT6=
EXTT7=
EXTT8=
EXTT9=
PLAYORDER=
